<svg width="227" height="202" viewBox="0 0 227 202" fill="none" xmlns="http://www.w3.org/2000/svg">
<g id="Group">
<g id="Group_2">
<g id="Group_3">
<g id="Group_4">
<g id="Group_5">
<g id="Group_6">
<path id="Vector" d="M38.2865 198.738C34.6512 198.738 31.2773 195.178 30.7669 190.808L16.3999 69.1743C15.877 64.8044 19.0019 61.2562 23.3593 61.2562H203.93C208.275 61.2562 211.4 64.8044 210.889 69.1743L196.522 190.808C196 195.178 192.626 198.738 189.003 198.738H38.2865Z" fill="#F6F6F6"/>
<g id="Group_7">
<path id="Vector_2" d="M203.631 63.9952C206.47 63.9952 208.512 66.3233 208.188 69.1867L194.219 190.821C193.896 193.684 191.68 196.012 189.289 196.012H37.9878C35.5974 196.012 33.3938 193.684 33.0577 190.821L19.0891 69.1867C18.7654 66.3233 20.8072 63.9952 23.6457 63.9952H203.631ZM204.216 58.5298H23.0606C17.1843 58.5298 12.9887 63.3105 13.6984 69.1867L28.4637 190.821C29.1734 196.697 33.7175 201.477 38.5854 201.477H188.692C193.559 201.477 198.091 196.697 198.813 190.821L213.579 69.1867C214.288 63.3105 210.093 58.5298 204.216 58.5298Z" fill="#3C4242"/>
</g>
</g>
<g id="Group_8">
<path id="Vector_3" d="M203.631 63.9952H177.486L170.091 159.87C169.867 162.734 167.663 165.062 165.173 165.062H30.1064L33.0695 190.808C33.4056 193.671 35.6092 196 37.9996 196H189.289C191.679 196 193.883 193.671 194.219 190.808L208.187 69.1743C208.511 66.3108 206.469 63.9952 203.631 63.9952Z" fill="#EDEEF2"/>
</g>
<g id="Group_9">
<path id="Vector_4" d="M203.631 63.9952H193.858L183.176 174.337C182.902 177.2 180.686 179.529 178.234 179.529H31.7627L33.0575 190.821C33.3936 193.684 35.5972 196.012 37.9876 196.012H189.277C191.667 196.012 193.871 193.684 194.207 190.821L208.175 69.1867C208.511 66.3108 206.47 63.9952 203.631 63.9952Z" fill="#8A33FD"/>
</g>
<path id="Vector_5" d="M29.9941 94.4721L36.2066 153.733" stroke="white" stroke-width="5.46568" stroke-miterlimit="10" stroke-linecap="round" stroke-linejoin="round"/>
</g>
</g>
<g id="Group_10">
<path id="Vector_6" d="M62.9613 180.076C63.0733 181.633 62.0898 182.902 60.7577 182.902H54.3585C53.0388 182.902 51.8437 181.633 51.7067 180.076L45.4072 107.582C45.2702 106.013 46.3534 104.756 47.8349 104.756H54.9312C56.4127 104.756 57.6826 106.013 57.7947 107.582L62.9613 180.076Z" fill="#BEBCBD" stroke="#3C4242" stroke-width="5.46568" stroke-miterlimit="10" stroke-linecap="round" stroke-linejoin="round"/>
<path id="Vector_7" d="M91.1102 180.076C91.16 181.633 90.1267 182.902 88.7945 182.902H82.3954C81.0633 182.902 79.9303 181.633 79.8556 180.076L76.4195 107.582C76.3448 106.013 77.4777 104.756 78.9468 104.756H86.0432C87.5122 104.756 88.7572 106.013 88.807 107.582L91.1102 180.076Z" fill="#BEBCBD" stroke="#3C4242" stroke-width="5.46568" stroke-miterlimit="10" stroke-linecap="round" stroke-linejoin="round"/>
<path id="Vector_8" d="M119.258 180.076C119.246 181.633 118.163 182.902 116.831 182.902H110.444C109.112 182.902 108.029 181.633 108.016 180.076L107.443 107.582C107.431 106.013 108.614 104.756 110.083 104.756H117.179C118.661 104.756 119.843 106.013 119.831 107.582L119.258 180.076Z" fill="#BEBCBD" stroke="#3C4242" stroke-width="5.46568" stroke-miterlimit="10" stroke-linecap="round" stroke-linejoin="round"/>
<path id="Vector_9" d="M147.408 180.076C147.333 181.633 146.2 182.902 144.868 182.902H138.469C137.137 182.902 136.103 181.633 136.153 180.076L138.444 107.582C138.494 106.013 139.726 104.756 141.208 104.756H148.304C149.773 104.756 150.918 106.013 150.844 107.582L147.408 180.076Z" fill="#BEBCBD" stroke="#3C4242" stroke-width="5.46568" stroke-miterlimit="10" stroke-linecap="round" stroke-linejoin="round"/>
<path id="Vector_10" d="M175.556 180.076C175.419 181.633 174.237 182.902 172.904 182.902H166.505C165.173 182.902 164.19 181.633 164.302 180.076L169.456 107.582C169.568 106.013 170.85 104.756 172.319 104.756H179.416C180.885 104.756 181.98 106.013 181.843 107.582L175.556 180.076Z" fill="#BEBCBD" stroke="#3C4242" stroke-width="5.46568" stroke-miterlimit="10" stroke-linecap="round" stroke-linejoin="round"/>
</g>
</g>
</g>
<g id="Group_11">
<path id="Vector_11" d="M49.9276 67.9293C49.1308 69.1618 47.4875 69.5229 46.2674 68.7261L40.3289 64.904C39.0964 64.1072 38.7353 62.4639 39.5321 61.2438L76.3584 3.96263C77.1552 2.73011 78.7985 2.38152 80.031 3.16585L85.9696 6.97546C87.2021 7.77224 87.5631 9.4156 86.7663 10.6481L49.9276 67.9293Z" fill="#BEBCBD" stroke="#3C4242" stroke-width="5.46568" stroke-miterlimit="10" stroke-linecap="round" stroke-linejoin="round"/>
<path id="Vector_12" d="M177.338 67.9293C178.135 69.1618 179.778 69.5229 181.011 68.7261L186.949 64.904C188.182 64.1072 188.53 62.4639 187.746 61.2438L150.92 3.96263C150.123 2.73011 148.48 2.38152 147.26 3.16585L141.321 6.97546C140.089 7.77224 139.728 9.4156 140.524 10.6481L177.338 67.9293Z" fill="#BEBCBD" stroke="#3C4242" stroke-width="5.46568" stroke-miterlimit="10" stroke-linecap="round" stroke-linejoin="round"/>
</g>
<g id="Group_12">
<path id="Vector_13" d="M11.1585 87.5251C6.96298 87.5251 3.55176 84.1139 3.55176 79.9184V65.0783C3.55176 60.8827 6.96298 57.4715 11.1585 57.4715H216.106C220.301 57.4715 223.713 60.8827 223.713 65.0783V79.9184C223.713 84.1139 220.301 87.5251 216.106 87.5251H11.1585Z" fill="#F6F6F6"/>
<path id="Vector_14" d="M216.118 60.198C218.82 60.198 220.998 62.3767 220.998 65.0783V79.9184C220.998 82.6075 218.82 84.7987 216.118 84.7987H11.1582C8.46907 84.7987 6.27793 82.62 6.27793 79.9184V65.0783C6.27793 62.3892 8.46907 60.198 11.1582 60.198H216.118ZM216.118 54.7326H11.1582C5.45624 54.7326 0.8125 59.3763 0.8125 65.0783V79.9184C0.8125 85.6203 5.45624 90.2641 11.1582 90.2641H216.106C221.807 90.2641 226.451 85.6203 226.451 79.9184V65.0783C226.464 59.3763 221.82 54.7326 216.118 54.7326Z" fill="#3C4242"/>
</g>
<g id="Group_13">
<path id="Vector_15" d="M216.118 60.198H206.358V67.6181C206.358 70.3197 204.179 72.4984 201.477 72.4984H6.27832V79.9184C6.27832 82.6075 8.46947 84.7987 11.1586 84.7987H216.106C218.807 84.7987 220.986 82.62 220.986 79.9184V65.0783C220.999 62.3892 218.807 60.198 216.118 60.198Z" fill="#8A33FD"/>
</g>
</g>
</svg>
