<svg width="188" height="175" viewBox="0 0 188 175" fill="none" xmlns="http://www.w3.org/2000/svg">
<g id="Group">
<g id="Group_2">
<path id="Vector" d="M162.182 171.395C161.049 171.395 160.004 170.686 159.605 169.578L139.947 114.413L24.6005 122.816C24.5382 122.816 24.4635 122.829 24.4013 122.829C19.0105 122.829 14.6158 118.496 14.5162 113.118L2.73877 12.9353C2.72632 12.8357 2.71387 12.7236 2.71387 12.6116C2.71387 7.1586 7.14597 2.7265 12.5989 2.7265C12.6612 2.7265 12.711 2.7265 12.7732 2.7265L175.367 13.0473C180.77 13.0971 185.152 17.5043 185.152 22.9199V101.938C185.152 107.354 180.782 111.761 175.379 111.811L164.909 112.57V168.644C164.909 169.976 163.95 171.109 162.643 171.333C162.494 171.383 162.344 171.395 162.182 171.395Z" fill="#F6F6F6"/>
<path id="Vector_2" d="M12.6116 5.46543L175.292 15.7987C179.239 15.7987 182.438 18.9983 182.438 22.9448V101.963C182.438 105.91 179.239 109.109 175.292 109.109L162.195 110.068V168.681L141.84 111.549L24.4139 120.102C20.4673 120.102 17.2678 116.903 17.2678 112.956L5.47787 12.624C5.46542 8.665 8.66501 5.46543 12.6116 5.46543ZM12.6116 0C5.65217 0 0 5.66462 0 12.624C0 12.8357 0.0124482 13.0473 0.0373476 13.259L11.8023 113.305C12.0015 120.09 17.579 125.555 24.4139 125.555C24.5508 125.555 24.6753 125.555 24.8123 125.543L138.08 117.289L157.041 170.499C157.825 172.703 159.904 174.134 162.182 174.134C162.494 174.134 162.805 174.109 163.116 174.06C165.731 173.611 167.648 171.333 167.648 168.669V115.135L175.504 114.562C182.351 114.438 187.891 108.835 187.891 101.951V22.9324C187.891 16.0477 182.339 10.4329 175.479 10.3208L12.9602 0.0124524C12.8481 2.65983e-06 12.7361 0 12.6116 0Z" fill="#3C4242"/>
</g>
<path id="Vector_3" d="M41.5319 16.0851L21.9485 14.8401C18.4501 14.8401 15.624 17.6786 15.624 21.1645L21.3633 70.0048" stroke="#3C4242" stroke-width="5.46568" stroke-miterlimit="10" stroke-linecap="round" stroke-linejoin="round"/>
<g id="Group_3">
<path id="Vector_4" d="M175.292 15.7862L163.976 15.0641V85.8657C163.976 89.8123 160.776 93.0118 156.83 93.0118L147.828 93.6717L147.032 93.7339L143.72 93.9705L16.1104 103.27L17.2557 112.944C17.2557 116.89 20.4553 120.09 24.4019 120.09L141.828 111.537L143.732 116.866L162.195 168.669V110.056L175.292 109.097C179.239 109.097 182.439 105.897 182.439 101.951V22.9324C182.439 18.9858 179.239 15.7862 175.292 15.7862Z" fill="#8A33FD"/>
</g>
<g id="Group_4">
<g id="Group_5">
<path id="Vector_5" d="M175.292 15.7863L172.018 15.5746V94.5058C172.018 98.4524 168.818 101.652 164.872 101.652L151.774 102.611V139.424L162.195 168.669V110.056L175.292 109.097C179.239 109.097 182.438 105.897 182.438 101.951V22.9324C182.438 18.9858 179.239 15.7863 175.292 15.7863Z" fill="#BEBCBD"/>
</g>
</g>
</g>
<g id="Frame 374">
<circle id="Ellipse 12" cx="60" cy="40" r="5.30973" fill="#2A2F2F"/>
<circle id="Ellipse 13" cx="110" cy="40" r="5.30973" fill="#2A2F2F"/>
</g>
  <path id="Vector 1" d="M3.35938 12.6266C7.25318 5.07499 18.7222 -5.49728 33.4479 12.6266" stroke="#2A2F2F" stroke-width="5" stroke-linecap="round" transform="translate(70, 60)" />
</svg>
