<svg width="242" height="185" viewBox="0 0 242 185" fill="none" xmlns="http://www.w3.org/2000/svg">
<g id="Group">
<g id="Group_2">
<g id="Group_3">
<g id="Group_4">
<path id="Vector" d="M31.7069 55.8578C31.2836 55.8578 30.8478 55.7582 30.4619 55.559L4.37972 42.2503C3.42109 41.7647 2.83596 40.7439 2.88576 39.6732C2.94801 38.5901 3.63274 37.6563 4.62872 37.2704L93.5944 3.07102C93.9057 2.94652 94.2418 2.88428 94.5779 2.88428C94.8767 2.88428 95.188 2.93407 95.4743 3.03367L117.747 10.765C118.842 11.1509 119.589 12.1842 119.589 13.342V20.3886C119.589 21.5215 118.892 22.5299 117.834 22.9408L32.6779 55.6835C32.3667 55.7956 32.043 55.8578 31.7069 55.8578Z" fill="#EDEEF2"/>
<path id="Vector_2" d="M94.5902 5.62322L116.863 13.3545V20.401L31.7067 53.1438L5.62449 39.8226L94.5902 5.62322ZM94.5902 0.157791C93.9179 0.157791 93.2581 0.282299 92.6231 0.518844L3.66989 34.7182C1.65304 35.4901 0.283568 37.3825 0.171521 39.5363C0.0594733 41.6901 1.2173 43.7069 3.147 44.6904L29.2292 57.9992C30.001 58.3976 30.8601 58.5968 31.7191 58.5968C32.3789 58.5968 33.0512 58.4723 33.6862 58.2357L118.842 25.493C120.959 24.6837 122.341 22.6544 122.341 20.3886V13.342C122.341 11.0139 120.872 8.93485 118.668 8.17541L96.3954 0.444148C95.8103 0.257403 95.2002 0.157791 94.5902 0.157791Z" fill="#3C4242"/>
</g>
</g>
<g id="Group_5">
<g id="Group_6">
<path id="Vector_3" d="M47.095 47.2053L30.0016 39.0258L107.987 10.2545L94.5907 5.62321L5.625 39.8226L31.7072 53.1313L47.095 47.2053Z" fill="#BEBCBD"/>
</g>
</g>
</g>
<g id="Group_7">
<g id="Group_8">
<g id="Group_9">
<path id="Vector_4" d="M209.638 55.8578C209.302 55.8578 208.978 55.7956 208.655 55.6711L123.499 22.9283C122.44 22.5175 121.743 21.5091 121.743 20.3761V13.3296C121.743 12.1593 122.478 11.126 123.586 10.7525L145.858 3.02123C146.145 2.92163 146.456 2.87184 146.755 2.87184C147.091 2.87184 147.414 2.93408 147.738 3.05858L236.704 37.258C237.712 37.6439 238.397 38.5901 238.447 39.6608C238.509 40.7439 237.924 41.7523 236.965 42.2379L210.883 55.5466C210.497 55.7582 210.074 55.8578 209.638 55.8578Z" fill="#EDEEF2"/>
<path id="Vector_5" d="M146.755 5.62322L235.72 39.8226L209.638 53.1314L124.482 20.3886V13.342L146.755 5.62322ZM146.755 0.157791C146.145 0.157791 145.547 0.257396 144.962 0.456591L122.689 8.18786C120.486 8.94729 119.017 11.0264 119.017 13.3545V20.401C119.017 22.6669 120.411 24.6962 122.527 25.5054L207.684 58.2482C208.318 58.4972 208.978 58.6092 209.651 58.6092C210.51 58.6092 211.356 58.41 212.141 58.0116L238.223 44.7029C240.14 43.7194 241.31 41.7025 241.198 39.5487C241.086 37.3949 239.717 35.5026 237.7 34.7307L148.734 0.531287C148.087 0.269842 147.414 0.157791 146.755 0.157791Z" fill="#3C4242"/>
</g>
</g>
<g id="Group_10">
<g id="Group_11">
<path id="Vector_6" d="M194.25 47.2053L211.356 39.0258L133.358 10.2545L146.754 5.62321L235.72 39.8226L209.638 53.1313L194.25 47.2053Z" fill="#BEBCBD"/>
</g>
</g>
</g>
<g id="Group_12">
<g id="Group_13">
<path id="Vector_7" d="M209.638 145.869C209.302 145.869 208.978 145.807 208.655 145.683L119.689 111.483C118.631 111.072 117.934 110.064 117.934 108.931V19.9653C117.934 19.0689 118.382 18.2223 119.116 17.7119C119.577 17.4007 120.112 17.2264 120.66 17.2264C120.996 17.2264 121.32 17.2886 121.644 17.4131L210.609 51.6125C211.668 52.0233 212.365 53.0318 212.365 54.1647V143.13C212.365 144.027 211.917 144.873 211.182 145.384C210.721 145.707 210.186 145.869 209.638 145.869Z" fill="#BEBCBD"/>
<g id="Group_14">
<path id="Vector_8" d="M120.672 19.9653L209.638 54.1647V143.13L120.672 108.931V19.9653ZM120.672 14.4999C119.577 14.4999 118.506 14.8236 117.572 15.4585C116.091 16.4794 115.207 18.1601 115.207 19.9653V108.931C115.207 111.197 116.601 113.226 118.705 114.035L207.671 148.235C208.306 148.484 208.966 148.596 209.638 148.596C210.734 148.596 211.804 148.272 212.738 147.637C214.22 146.616 215.104 144.936 215.104 143.13V54.1647C215.104 51.8988 213.709 49.8695 211.593 49.0603L122.627 14.8609C122.005 14.6244 121.332 14.4999 120.672 14.4999Z" fill="#3C4242"/>
</g>
</g>
</g>
<g id="Group_15">
<path id="Vector_9" d="M189.109 46.2716L120.673 75.4661V108.931L209.639 143.143V54.1647L189.109 46.2716Z" fill="#8A33FD"/>
</g>
<g id="Group_16">
<path id="Vector_10" d="M120.673 181.351C120.125 181.351 119.59 181.189 119.129 180.865C118.382 180.355 117.946 179.508 117.946 178.612V89.6464C117.946 88.5135 118.643 87.505 119.702 87.0942L208.667 52.8948C208.979 52.7703 209.315 52.7081 209.651 52.7081C210.199 52.7081 210.734 52.8699 211.195 53.1936C211.942 53.704 212.377 54.5506 212.377 55.447V144.413C212.377 145.546 211.68 146.554 210.622 146.965L121.656 181.164C121.333 181.289 121.009 181.351 120.673 181.351Z" fill="#EDEEF2"/>
<path id="Vector_11" d="M209.638 55.447V144.413L120.672 178.612V89.6464L209.638 55.447ZM209.638 49.9816C208.978 49.9816 208.306 50.1061 207.671 50.3426L118.705 84.542C116.589 85.3512 115.207 87.3805 115.207 89.6464V178.612C115.207 180.417 116.091 182.098 117.572 183.119C118.494 183.754 119.577 184.078 120.672 184.078C121.332 184.078 122.005 183.953 122.64 183.716L211.605 149.517C213.722 148.708 215.116 146.679 215.116 144.413V55.447C215.116 53.6418 214.232 51.9611 212.751 50.9402C211.804 50.3053 210.734 49.9816 209.638 49.9816Z" fill="#3C4242"/>
</g>
<g id="Group_17">
<path id="Vector_12" d="M194.251 61.3731V131.589L120.673 159.875V178.625L209.639 144.413V55.447L194.251 61.3731Z" fill="#BEBCBD"/>
</g>
<g id="Group_18">
<g id="Group_19">
<path id="Vector_13" d="M31.706 145.869C31.1582 145.869 30.6229 145.707 30.1622 145.384C29.4152 144.873 28.9795 144.027 28.9795 143.13V54.1647C28.9795 53.0318 29.6767 52.0233 30.7349 51.6125L119.701 17.4131C120.012 17.2886 120.348 17.2264 120.684 17.2264C121.232 17.2264 121.767 17.3882 122.228 17.7119C122.975 18.2223 123.411 19.0689 123.411 19.9653V108.931C123.411 110.064 122.713 111.072 121.655 111.483L32.6895 145.683C32.3658 145.807 32.0421 145.869 31.706 145.869Z" fill="#EDEEF2"/>
<g id="Group_20">
<path id="Vector_14" d="M120.672 19.9653V108.931L31.7064 143.13V54.1647L120.672 19.9653ZM120.672 14.4999C120.012 14.4999 119.352 14.6244 118.705 14.8609L29.7393 49.0603C27.6229 49.8695 26.2285 51.8988 26.2285 54.1647V143.13C26.2285 144.936 27.1124 146.616 28.594 147.637C29.5152 148.272 30.5984 148.596 31.6939 148.596C32.3538 148.596 33.0261 148.471 33.661 148.235L122.627 114.035C124.743 113.226 126.125 111.197 126.125 108.931V19.9653C126.125 18.1601 125.241 16.4794 123.76 15.4585C122.851 14.8236 121.768 14.4999 120.672 14.4999Z" fill="#3C4242"/>
</g>
</g>
</g>
<g id="Group_21">
<path id="Vector_15" d="M108.06 24.8207V99.631L31.7061 128.987V143.143L120.672 108.931V19.9653L108.06 24.8207Z" fill="#BEBCBD"/>
</g>
<g id="Group_22">
<path id="Vector_16" d="M120.671 181.351C120.335 181.351 120.012 181.289 119.688 181.164L30.7222 146.965C29.664 146.554 28.9668 145.546 28.9668 144.413V55.447C28.9668 54.5506 29.415 53.704 30.1495 53.1936C30.6102 52.8824 31.1455 52.7081 31.6933 52.7081C32.0294 52.7081 32.3531 52.7703 32.6768 52.8948L121.643 87.0942C122.701 87.505 123.398 88.5135 123.398 89.6464V178.612C123.398 179.508 122.95 180.355 122.215 180.865C121.755 181.189 121.219 181.351 120.671 181.351Z" fill="#8A33FD"/>
<g id="Group_23">
<path id="Vector_17" d="M31.7066 55.447L120.672 89.6464V178.612L31.7066 144.413V55.447ZM31.7066 49.9816C30.6111 49.9816 29.5404 50.3053 28.6067 50.9402C27.1251 51.9611 26.2412 53.6418 26.2412 55.447V144.413C26.2412 146.679 27.6356 148.708 29.752 149.517L118.718 183.716C119.353 183.965 120.012 184.078 120.685 184.078C121.78 184.078 122.851 183.754 123.785 183.119C125.266 182.098 126.15 180.417 126.15 178.612V89.6464C126.15 87.3805 124.756 85.3512 122.652 84.542L33.6861 50.3426C33.0388 50.1061 32.3665 49.9816 31.7066 49.9816Z" fill="#3C4242"/>
</g>
</g>
<g id="Group_24">
<path id="Vector_18" d="M106.566 84.2307V157.672L31.7061 128.888V144.413L120.672 178.625V89.6464L106.566 84.2307Z" fill="#BEBCBD"/>
</g>
<g id="Group_25">
<g id="Group_26">
<path id="Vector_19" d="M138.836 118.99C137.952 118.99 137.105 118.567 136.583 117.795L122.228 96.7676C121.917 96.3194 121.755 95.7717 121.755 95.2239V88.1773C121.755 87.0444 122.452 86.036 123.51 85.6251L208.666 52.8824C208.99 52.7579 209.314 52.6956 209.65 52.6956C210.534 52.6956 211.38 53.1314 211.903 53.8908L230.067 80.4958C230.541 81.1806 230.665 82.052 230.416 82.8488C230.167 83.6456 229.569 84.2806 228.785 84.5918L139.819 118.791C139.496 118.941 139.16 118.99 138.836 118.99Z" fill="#EDEEF2"/>
<path id="Vector_20" d="M209.638 55.447L227.802 82.0521L138.836 116.251L124.482 95.2239V88.1773L209.638 55.447ZM209.638 49.9816C208.978 49.9816 208.318 50.1061 207.683 50.3426L122.515 83.0854C120.398 83.8946 119.004 85.9239 119.004 88.1898V95.2363C119.004 96.3319 119.34 97.415 119.95 98.3114L134.305 119.339C135.35 120.87 137.056 121.729 138.824 121.729C139.484 121.729 140.144 121.605 140.778 121.368L229.744 87.1689C231.3 86.5713 232.508 85.289 233.006 83.6954C233.504 82.1019 233.243 80.3713 232.309 78.9894L214.145 52.3844C213.111 50.8406 211.406 49.9816 209.638 49.9816Z" fill="#3C4242"/>
</g>
<g id="Group_27">
<g id="Group_28">
<path id="Vector_21" d="M194.249 61.3731L202.242 73.1381L128.664 101.436L138.835 116.264L227.801 82.0645L209.637 55.447L194.249 61.3731Z" fill="#BEBCBD"/>
</g>
</g>
</g>
<g id="Group_29">
<g id="Group_30">
<path id="Vector_22" d="M102.508 118.99C102.185 118.99 101.848 118.928 101.525 118.804L12.5591 84.6042C11.7747 84.3054 11.1772 83.6705 10.9282 82.8613C10.6792 82.0645 10.8037 81.193 11.2768 80.5083L29.4409 53.9032C29.9638 53.1438 30.8104 52.7081 31.6943 52.7081C32.018 52.7081 32.3541 52.7703 32.6778 52.8948L118.606 85.9364C119.664 86.3472 120.361 87.3556 120.361 88.4886V94.1034C120.361 94.6511 120.199 95.1865 119.888 95.6471L104.762 117.82C104.251 118.567 103.392 118.99 102.508 118.99Z" fill="#EDEEF2"/>
<path id="Vector_23" d="M31.7069 55.447L117.635 88.4886V94.1034L102.508 116.276L13.5427 82.077L31.7069 55.447ZM31.7069 49.9816C29.939 49.9816 28.2334 50.8406 27.1876 52.3719L9.03595 78.977C8.08977 80.3589 7.84077 82.0894 8.33876 83.683C8.83675 85.2765 10.0319 86.5588 11.6006 87.1564L100.566 121.356C101.201 121.605 101.873 121.717 102.521 121.717C104.289 121.717 105.994 120.858 107.04 119.327L122.167 97.1536C122.789 96.2447 123.113 95.1741 123.113 94.0785V88.4636C123.113 86.1978 121.718 84.1685 119.602 83.3593L33.6739 50.3177C33.0266 50.1061 32.3667 49.9816 31.7069 49.9816Z" fill="#3C4242"/>
</g>
<g id="Group_31">
<g id="Group_32">
<path id="Vector_24" d="M47.095 61.3731L39.1147 73.1381L112.693 101.436L102.509 116.264L13.543 82.0645L31.7071 55.447L47.095 61.3731Z" fill="#BEBCBD"/>
</g>
</g>
</g>
</g>
</svg>
